<svg width="20" height="20" viewBox="0 0 20 20" fill="none" xmlns="http://www.w3.org/2000/svg">
<path d="M7.37498 17.4C7.40686 17.4284 7.44716 17.4456 7.48972 17.449C7.53229 17.4524 7.57481 17.4418 7.6108 17.4188C7.64679 17.3958 7.6743 17.3617 7.68913 17.3217C7.70397 17.2816 7.70532 17.2378 7.69298 17.197L5.17298 8.55895C5.15012 8.48035 5.10376 8.41062 5.04013 8.35914C4.97649 8.30766 4.89862 8.27688 4.81698 8.27095C4.40898 8.24095 4.00198 8.20795 3.59497 8.17095L0.224975 7.86395C0.189348 7.86049 0.153448 7.86675 0.121094 7.88206C0.0887408 7.89738 0.0611445 7.92118 0.0412414 7.95093C0.0213383 7.98068 0.00987298 8.01527 0.00806521 8.05102C0.00625744 8.08677 0.0141748 8.12234 0.0309751 8.15395C1.85398 11.564 4.47898 14.814 7.37498 17.4ZM9.84698 19.226C9.86698 19.296 9.92698 19.348 9.99998 19.348C10.0352 19.3469 10.0692 19.3345 10.0968 19.3125C10.1244 19.2905 10.1441 19.2601 10.153 19.226L13.237 8.65295C13.2462 8.62226 13.2478 8.5898 13.2418 8.55833C13.2358 8.52686 13.2224 8.49728 13.2026 8.47209C13.1828 8.4469 13.1572 8.42684 13.1281 8.41359C13.0989 8.40034 13.067 8.39429 13.035 8.39595C11.0126 8.48273 8.98738 8.48273 6.96498 8.39595C6.93309 8.39434 6.90129 8.40039 6.87222 8.41359C6.84315 8.42678 6.81767 8.44675 6.79789 8.47181C6.77812 8.49687 6.76463 8.5263 6.75856 8.55764C6.75248 8.58898 6.754 8.62132 6.76297 8.65195L9.84698 19.226ZM12.307 17.197C12.251 17.387 12.477 17.532 12.625 17.4C15.521 14.813 18.146 11.564 19.969 8.15395C19.9857 8.12242 19.9936 8.08695 19.9918 8.0513C19.9901 8.01565 19.9787 7.98114 19.9589 7.95142C19.9391 7.92171 19.9117 7.89789 19.8795 7.88249C19.8473 7.86709 19.8115 7.86069 19.776 7.86395L16.406 8.17095C15.998 8.20795 15.591 8.24095 15.183 8.27095C15.1013 8.27688 15.0235 8.30766 14.9598 8.35914C14.8962 8.41062 14.8498 8.48035 14.827 8.55895L12.307 17.197ZM19.801 6.35595C19.8358 6.35289 19.8693 6.34073 19.898 6.32069C19.9267 6.30065 19.9496 6.27342 19.9645 6.24174C19.9794 6.21005 19.9857 6.17502 19.9828 6.14014C19.9799 6.10525 19.9679 6.07174 19.948 6.04295L16.71 1.34795C16.572 1.148 16.3875 0.984565 16.1724 0.871689C15.9572 0.758813 15.7179 0.699878 15.475 0.699952H12.985C12.9521 0.699952 12.9198 0.708039 12.8908 0.723498C12.8618 0.738958 12.8371 0.761316 12.8188 0.788596C12.8006 0.815876 12.7893 0.847239 12.786 0.879915C12.7827 0.912591 12.7875 0.945574 12.8 0.975952L15.057 6.49895C15.089 6.57708 15.145 6.64305 15.2169 6.68742C15.2887 6.73179 15.3728 6.75228 15.457 6.74595C15.727 6.72495 15.999 6.70195 16.27 6.67595L19.801 6.35595ZM11.165 0.945952C11.1345 0.872964 11.0831 0.81064 11.0173 0.766854C10.9514 0.723069 10.8741 0.699787 10.795 0.699952H9.20498C9.12589 0.699787 9.04853 0.723069 8.98268 0.766854C8.91682 0.81064 8.86542 0.872964 8.83498 0.945952L6.47698 6.60395C6.46477 6.63356 6.45985 6.66567 6.46263 6.69757C6.46541 6.72948 6.47581 6.76025 6.49296 6.78729C6.51011 6.81434 6.53351 6.83688 6.56118 6.853C6.58885 6.86912 6.61999 6.87837 6.65198 6.87995C8.88198 6.98795 11.118 6.98795 13.349 6.87995C13.3809 6.87821 13.4119 6.86886 13.4394 6.85267C13.467 6.83648 13.4902 6.81393 13.5073 6.78691C13.5243 6.75988 13.5346 6.72917 13.5374 6.69734C13.5401 6.66551 13.5352 6.63348 13.523 6.60395L11.165 0.945952ZM7.19998 0.975952C7.21245 0.945574 7.21726 0.912591 7.21397 0.879915C7.21068 0.847239 7.19939 0.815876 7.18111 0.788596C7.16282 0.761316 7.1381 0.738958 7.10913 0.723498C7.08015 0.708039 7.04782 0.699952 7.01498 0.699952H4.52498C4.28203 0.699878 4.04271 0.758813 3.82758 0.871689C3.61246 0.984565 3.42797 1.148 3.28998 1.34795L0.0519752 6.04295C0.0320637 6.07174 0.0200569 6.10525 0.0171547 6.14014C0.0142525 6.17502 0.0205565 6.21005 0.0354369 6.24174C0.0503172 6.27342 0.0732526 6.30065 0.101951 6.32069C0.130649 6.34073 0.164105 6.35289 0.198975 6.35595L3.72998 6.67595C4.00098 6.70195 4.27198 6.72495 4.54298 6.74595C4.62721 6.75243 4.71133 6.73201 4.78322 6.68762C4.8551 6.64323 4.91104 6.57717 4.94298 6.49895L7.19998 0.975952Z" fill="black"/>
</svg>
