<svg width="22" height="19" viewBox="0 0 22 19" fill="none" xmlns="http://www.w3.org/2000/svg">
<path fill-rule="evenodd" clip-rule="evenodd" d="M14.0209 0.343455C14.5299 0.256455 15.0989 0.227455 15.6349 0.318455C16.5897 0.479724 17.4743 0.923085 18.1749 1.59146C18.6309 1.60146 19.0799 1.51145 19.4769 1.38345C19.8606 1.25832 20.2289 1.09026 20.5749 0.882455L20.5839 0.876455C20.7279 0.78051 20.9007 0.737309 21.0729 0.754176C21.2451 0.771043 21.4062 0.846939 21.5288 0.969001C21.6515 1.09106 21.7281 1.25178 21.7458 1.42391C21.7635 1.59604 21.7212 1.76899 21.6259 1.91346C21.4189 2.22846 21.1299 2.79046 20.8069 3.42046L20.6519 3.72146C20.4669 4.08146 20.2769 4.44546 20.0999 4.75745C19.9889 4.95345 19.8699 5.15246 19.7499 5.32446V5.59845C19.7622 7.23709 19.448 8.86177 18.8257 10.3777C18.2033 11.8936 17.2853 13.2703 16.1251 14.4276C14.9649 15.5849 13.5859 16.4995 12.0684 17.1181C10.551 17.7367 8.92552 18.0468 7.28691 18.0305C4.91236 18.0326 2.58777 17.3485 0.592913 16.0605C0.450327 15.9682 0.34326 15.8303 0.289226 15.6694C0.235192 15.5084 0.237389 15.3338 0.295459 15.1742C0.353529 15.0147 0.464033 14.8795 0.608895 14.7909C0.753757 14.7023 0.924401 14.6655 1.09291 14.6865C2.47078 14.8512 3.86729 14.6289 5.12591 14.0445C4.51184 13.7653 3.96264 13.3613 3.51328 12.8582C3.06392 12.3552 2.72426 11.764 2.51591 11.1225C2.47621 10.9996 2.46889 10.8686 2.49464 10.7422C2.52039 10.6157 2.57835 10.498 2.66291 10.4005L2.67291 10.3905C2.1653 9.93821 1.75848 9.38426 1.47887 8.76456C1.19926 8.14487 1.05311 7.4733 1.04991 6.79346V6.74146C1.04984 6.57681 1.10395 6.41671 1.20389 6.28587C1.30383 6.15502 1.44405 6.0607 1.60291 6.01746C1.26429 5.34179 1.0886 4.59622 1.08991 3.84046C1.08934 2.98363 1.31346 2.14162 1.73991 1.39845C1.8005 1.29296 1.88584 1.20378 1.98858 1.13862C2.09131 1.07346 2.20835 1.03427 2.32961 1.02443C2.45087 1.01458 2.5727 1.03439 2.6846 1.08213C2.7965 1.12987 2.8951 1.20411 2.97191 1.29845C4.7211 3.45339 7.2271 4.85912 9.97791 5.22845C9.95403 4.32864 10.181 3.43993 10.6335 2.66179C11.086 1.88365 11.7461 1.24678 12.5399 0.822455C12.9419 0.608455 13.4739 0.437455 14.0219 0.343455H14.0209ZM2.74291 7.89145C2.9371 8.43797 3.26985 8.92471 3.7086 9.30404C4.14735 9.68337 4.67707 9.94229 5.24591 10.0555C5.4098 10.0881 5.55809 10.1746 5.66725 10.3011C5.77641 10.4276 5.84019 10.587 5.84846 10.7539C5.85673 10.9208 5.80902 11.0857 5.7129 11.2224C5.61679 11.3591 5.47777 11.4598 5.31791 11.5085C5.04591 11.5915 4.76691 11.6485 4.48391 11.6815C4.79116 12.0778 5.18327 12.4003 5.63146 12.6252C6.07965 12.8502 6.57253 12.9719 7.07391 12.9815C7.22857 12.9844 7.37854 13.035 7.50328 13.1265C7.62802 13.218 7.72143 13.3458 7.7707 13.4924C7.81998 13.639 7.82272 13.7973 7.77853 13.9455C7.73435 14.0938 7.64542 14.2247 7.52391 14.3205C6.48116 15.1409 5.26938 15.7198 3.97591 16.0155C5.04678 16.3582 6.16453 16.532 7.28891 16.5305H7.29791C8.73792 16.5456 10.1665 16.2737 11.5002 15.7305C12.834 15.1873 14.0461 14.3838 15.0657 13.3668C16.0854 12.3499 16.8921 11.1399 17.4388 9.80765C17.9856 8.47538 18.2613 7.0475 18.2499 5.60746V5.07245C18.2498 4.89035 18.3159 4.7144 18.4359 4.57746C18.5059 4.49846 18.6259 4.31646 18.7959 4.01746C18.9559 3.73546 19.1339 3.39545 19.3189 3.03645L19.3519 2.97045C18.8295 3.08801 18.2917 3.12076 17.7589 3.06746C17.5788 3.04783 17.4118 2.96364 17.2889 2.83046C16.786 2.28514 16.1163 1.92216 15.3849 1.79845C15.016 1.74627 14.6411 1.75472 14.2749 1.82345C13.918 1.87901 13.5715 1.98789 13.2469 2.14645C12.5926 2.49606 12.0728 3.05298 11.7691 3.72985C11.4654 4.40672 11.395 5.16525 11.5689 5.88645C11.5963 5.99986 11.5968 6.11809 11.5705 6.23174C11.5441 6.34539 11.4917 6.45133 11.4172 6.54114C11.3427 6.63095 11.2483 6.70214 11.1415 6.74907C11.0347 6.79599 10.9184 6.81736 10.8019 6.81145C7.7295 6.65605 4.82477 5.3632 2.65291 3.18446C2.61072 3.4009 2.58962 3.62093 2.58991 3.84146V3.84346C2.58879 4.3942 2.72387 4.93668 2.98314 5.42258C3.24241 5.90849 3.61781 6.32274 4.07591 6.62846C4.21044 6.719 4.312 6.8507 4.36536 7.00383C4.41873 7.15696 4.42103 7.32325 4.37192 7.4778C4.32281 7.63234 4.22493 7.7668 4.09296 7.86103C3.96099 7.95526 3.80203 8.00418 3.63991 8.00045C3.33812 7.99209 3.03779 7.95626 2.74291 7.89145Z" fill="#0E0D0D"/>
</svg>
